<svg width="40" height="40" viewBox="0 0 40 40" fill="none" xmlns="http://www.w3.org/2000/svg">
<path d="M27.5 12.5V16.25C27.5 16.5815 27.3683 16.8995 27.1339 17.1339C26.8995 17.3683 26.5815 17.5 26.25 17.5H25V12.5H15V17.5H13.75C13.4185 17.5 13.1005 17.3683 12.8661 17.1339C12.6317 16.8995 12.5 16.5815 12.5 16.25V12.5H7.5V35H32.5V12.5H27.5ZM12.5 10C12.5 8.01088 13.2902 6.10322 14.6967 4.6967C16.1032 3.29018 18.0109 2.5 20 2.5C21.9891 2.5 23.8968 3.29018 25.3033 4.6967C26.7098 6.10322 27.5 8.01088 27.5 10H33.75C34.0815 10 34.3995 10.1317 34.6339 10.3661C34.8683 10.6005 35 10.9185 35 11.25V36.25C35 36.5815 34.8683 36.8995 34.6339 37.1339C34.3995 37.3683 34.0815 37.5 33.75 37.5H6.25C5.91848 37.5 5.60054 37.3683 5.36612 37.1339C5.1317 36.8995 5 36.5815 5 36.25V11.25C5 10.9185 5.1317 10.6005 5.36612 10.3661C5.60054 10.1317 5.91848 10 6.25 10H12.5ZM15 10H25C25 8.67392 24.4732 7.40215 23.5355 6.46447C22.5979 5.52678 21.3261 5 20 5C18.6739 5 17.4021 5.52678 16.4645 6.46447C15.5268 7.40215 15 8.67392 15 10V10Z" fill="#B7802D"/>
<path d="M7.5 27.5H32.5V30H7.5V27.5Z" fill="#B7802D"/>
<rect x="20" y="40" width="20" height="20" rx="10" transform="rotate(-90 20 40)" fill="#E8C180"/>
</svg>
