<svg width="154" height="30" viewBox="0 0 154 30" fill="none" xmlns="http://www.w3.org/2000/svg">
<path d="M16.6238 25L22.4558 8.044H25.0208L30.7178 25H28.5038L27.0728 20.653H20.3228L18.8378 25H16.6238ZM20.8628 19.006H26.5328L23.6978 10.609L20.8628 19.006ZM34.1527 25V8.044H40.4977C41.7397 8.044 42.7702 8.251 43.5892 8.665C44.4082 9.07 45.0202 9.61 45.4252 10.285C45.8302 10.951 46.0327 11.68 46.0327 12.472C46.0327 13.444 45.7627 14.29 45.2227 15.01C44.6917 15.721 43.8907 16.207 42.8197 16.468C43.5127 16.576 44.1202 16.8235 44.6422 17.2105C45.1732 17.5885 45.5872 18.0565 45.8842 18.6145C46.1812 19.1635 46.3297 19.753 46.3297 20.383C46.3297 20.959 46.2307 21.5215 46.0327 22.0705C45.8437 22.6195 45.5242 23.1145 45.0742 23.5555C44.6242 23.9965 44.0257 24.3475 43.2787 24.6085C42.5317 24.8695 41.6047 25 40.4977 25H34.1527ZM36.2587 23.164H40.4707C41.7577 23.164 42.6802 22.894 43.2382 22.354C43.8052 21.814 44.0887 21.121 44.0887 20.275C44.0887 19.42 43.7827 18.736 43.1707 18.223C42.5587 17.701 41.6587 17.44 40.4707 17.44H36.2587V23.164ZM36.2587 9.853V15.631H40.4167C41.4697 15.631 42.3067 15.3745 42.9277 14.8615C43.5577 14.3395 43.8727 13.606 43.8727 12.661C43.8727 11.779 43.5667 11.0905 42.9547 10.5955C42.3517 10.1005 41.5147 9.853 40.4437 9.853H36.2587ZM56.9163 25.324C55.5123 25.324 54.2568 25 53.1498 24.352C52.0428 23.704 51.1698 22.732 50.5308 21.436C49.8918 20.131 49.5723 18.502 49.5723 16.549C49.5723 14.569 49.8918 12.931 50.5308 11.635C51.1698 10.33 52.0428 9.358 53.1498 8.719C54.2568 8.071 55.5123 7.747 56.9163 7.747C58.3203 7.747 59.5758 8.071 60.6828 8.719C61.7898 9.367 62.6628 10.3435 63.3018 11.6485C63.9408 12.9535 64.2603 14.587 64.2603 16.549C64.2603 18.52 63.9408 20.158 63.3018 21.463C62.6628 22.759 61.7898 23.7265 60.6828 24.3655C59.5758 25.0045 58.3203 25.324 56.9163 25.324ZM56.9163 23.38C58.5093 23.38 59.7648 22.7995 60.6828 21.6385C61.6098 20.4775 62.0733 18.772 62.0733 16.522C62.0733 14.317 61.6098 12.6205 60.6828 11.4325C59.7648 10.2355 58.5093 9.637 56.9163 9.637C55.3413 9.637 54.0858 10.2355 53.1498 11.4325C52.2228 12.6295 51.7593 14.335 51.7593 16.549C51.7593 18.79 52.2228 20.491 53.1498 21.652C54.0858 22.804 55.3413 23.38 56.9163 23.38ZM67.973 8.044H70.079V18.871C70.079 20.464 70.4795 21.616 71.2805 22.327C72.0815 23.029 73.13 23.38 74.426 23.38C75.713 23.38 76.7525 23.029 77.5445 22.327C78.3455 21.616 78.746 20.464 78.746 18.871V8.044H80.852V18.871C80.852 20.293 80.5865 21.4855 80.0555 22.4485C79.5335 23.4025 78.791 24.1225 77.828 24.6085C76.865 25.0855 75.731 25.324 74.426 25.324C73.121 25.324 71.9825 25.0855 71.0105 24.6085C70.0475 24.1225 69.3005 23.4025 68.7695 22.4485C68.2385 21.4855 67.973 20.293 67.973 18.871V8.044ZM83.4256 9.853V8.044H96.6286V9.853H90.5941L91.0666 9.367V25H88.9606V9.367L89.4331 9.853H83.4256ZM105.546 8.044H107.652V18.871C107.652 20.464 108.053 21.616 108.854 22.327C109.655 23.029 110.703 23.38 111.999 23.38C113.286 23.38 114.326 23.029 115.118 22.327C115.919 21.616 116.319 20.464 116.319 18.871V8.044H118.425V18.871C118.425 20.293 118.16 21.4855 117.629 22.4485C117.107 23.4025 116.364 24.1225 115.401 24.6085C114.438 25.0855 113.304 25.324 111.999 25.324C110.694 25.324 109.556 25.0855 108.584 24.6085C107.621 24.1225 106.874 23.4025 106.343 22.4485C105.812 21.4855 105.546 20.293 105.546 18.871V8.044ZM128.991 25.324C127.857 25.324 126.817 25.1215 125.872 24.7165C124.927 24.3025 124.167 23.695 123.591 22.894C123.015 22.093 122.718 21.103 122.7 19.924H124.752C124.752 20.716 124.945 21.3685 125.332 21.8815C125.719 22.3855 126.232 22.7635 126.871 23.0155C127.51 23.2585 128.208 23.38 128.964 23.38C129.783 23.38 130.494 23.2495 131.097 22.9885C131.7 22.7275 132.163 22.3855 132.487 21.9625C132.82 21.5305 132.987 21.058 132.987 20.545C132.987 19.825 132.766 19.2445 132.325 18.8035C131.884 18.3535 131.232 17.989 130.368 17.71L127.371 16.657C125.967 16.153 124.905 15.577 124.185 14.929C123.465 14.281 123.105 13.372 123.105 12.202C123.105 10.888 123.609 9.817 124.617 8.989C125.634 8.161 127.074 7.747 128.937 7.747C130.665 7.747 132.015 8.1475 132.987 8.9485C133.959 9.7405 134.517 10.807 134.661 12.148H132.582C132.447 11.365 132.078 10.7575 131.475 10.3255C130.881 9.8845 130.035 9.664 128.937 9.664C127.821 9.664 126.952 9.9115 126.331 10.4065C125.71 10.9015 125.4 11.527 125.4 12.283C125.4 12.904 125.593 13.399 125.98 13.768C126.376 14.128 126.993 14.452 127.83 14.74L131.34 15.955C132.555 16.36 133.513 16.927 134.215 17.656C134.926 18.385 135.282 19.33 135.282 20.491C135.282 21.391 135.039 22.2055 134.553 22.9345C134.076 23.6635 133.369 24.244 132.433 24.676C131.497 25.108 130.35 25.324 128.991 25.324Z" fill="#A66F1B"/>
</svg>
