<svg width="40" height="41" viewBox="0 0 40 41" fill="none" xmlns="http://www.w3.org/2000/svg">
<path d="M19.9997 35.8749C17.8946 34.0344 15.9433 32.0166 14.1663 29.8428C11.4997 26.5781 8.33301 21.7162 8.33301 17.0832C8.33185 14.7171 9.01552 12.4038 10.2975 10.4361C11.5795 8.46845 13.4021 6.9348 15.5348 6.02928C17.6675 5.12376 20.0143 4.88708 22.2782 5.34918C24.5421 5.81129 26.6215 6.95141 28.253 8.62527C29.3393 9.73373 30.2003 11.052 30.7862 12.5038C31.3721 13.9556 31.6712 15.5121 31.6663 17.0832C31.6663 21.7162 28.4997 26.5781 25.833 29.8428C24.056 32.0166 22.1048 34.0344 19.9997 35.8749ZM19.9997 11.9582C18.6736 11.9582 17.4018 12.4982 16.4641 13.4593C15.5265 14.4204 14.9997 15.724 14.9997 17.0832C14.9997 18.4425 15.5265 19.746 16.4641 20.7072C17.4018 21.6683 18.6736 22.2082 19.9997 22.2082C21.3258 22.2082 22.5975 21.6683 23.5352 20.7072C24.4729 19.746 24.9997 18.4425 24.9997 17.0832C24.9997 15.724 24.4729 14.4204 23.5352 13.4593C22.5975 12.4982 21.3258 11.9582 19.9997 11.9582Z" fill="#A66F1B"/>
</svg>
