<svg width="210" height="30" viewBox="0 0 210 30" fill="none" xmlns="http://www.w3.org/2000/svg">
<path d="M42.2824 25V8.044H47.7364C49.5994 8.044 51.0214 8.5165 52.0024 9.4615C52.9924 10.3975 53.4874 11.671 53.4874 13.282C53.4874 14.875 52.9924 16.1395 52.0024 17.0755C51.0214 18.0025 49.5994 18.466 47.7364 18.466H44.4154V25H42.2824ZM44.4154 16.63H47.7364C48.9154 16.63 49.8064 16.3285 50.4094 15.7255C51.0214 15.1225 51.3274 14.308 51.3274 13.282C51.3274 12.238 51.0214 11.4055 50.4094 10.7845C49.8064 10.1635 48.9154 9.853 47.7364 9.853H44.4154V16.63ZM57.2866 25V8.044H63.1996C65.1346 8.044 66.5971 8.5075 67.5871 9.4345C68.5861 10.3525 69.0856 11.563 69.0856 13.066C69.0856 14.551 68.5861 15.757 67.5871 16.684C66.5971 17.602 65.1346 18.061 63.1996 18.061H59.3926V25H57.2866ZM66.7906 25L61.9306 17.305H64.2256L69.5176 25H66.7906ZM59.3926 16.576H63.0376C64.3066 16.576 65.2696 16.2655 65.9266 15.6445C66.5926 15.0145 66.9256 14.2 66.9256 13.201C66.9256 12.175 66.6061 11.3605 65.9671 10.7575C65.3371 10.1545 64.4146 9.853 63.1996 9.853H59.3926V16.576ZM79.8128 25.324C78.4088 25.324 77.1533 25 76.0463 24.352C74.9393 23.704 74.0663 22.732 73.4273 21.436C72.7883 20.131 72.4688 18.502 72.4688 16.549C72.4688 14.569 72.7883 12.931 73.4273 11.635C74.0663 10.33 74.9393 9.358 76.0463 8.719C77.1533 8.071 78.4088 7.747 79.8128 7.747C81.2168 7.747 82.4723 8.071 83.5793 8.719C84.6863 9.367 85.5593 10.3435 86.1983 11.6485C86.8373 12.9535 87.1568 14.587 87.1568 16.549C87.1568 18.52 86.8373 20.158 86.1983 21.463C85.5593 22.759 84.6863 23.7265 83.5793 24.3655C82.4723 25.0045 81.2168 25.324 79.8128 25.324ZM79.8128 23.38C81.4058 23.38 82.6613 22.7995 83.5793 21.6385C84.5063 20.4775 84.9698 18.772 84.9698 16.522C84.9698 14.317 84.5063 12.6205 83.5793 11.4325C82.6613 10.2355 81.4058 9.637 79.8128 9.637C78.2378 9.637 76.9823 10.2355 76.0463 11.4325C75.1193 12.6295 74.6558 14.335 74.6558 16.549C74.6558 18.79 75.1193 20.491 76.0463 21.652C76.9823 22.804 78.2378 23.38 79.8128 23.38ZM91.2475 8.044H96.2155C97.9255 8.044 99.4105 8.395 100.671 9.097C101.931 9.79 102.907 10.771 103.6 12.04C104.293 13.309 104.64 14.803 104.64 16.522C104.64 18.223 104.293 19.708 103.6 20.977C102.907 22.246 101.931 23.236 100.671 23.947C99.4105 24.649 97.9255 25 96.2155 25H91.2475V8.044ZM93.3535 9.907V23.164H96.2155C97.4935 23.164 98.5915 22.876 99.5095 22.3C100.437 21.724 101.148 20.9365 101.643 19.9375C102.147 18.9295 102.399 17.791 102.399 16.522C102.399 15.244 102.147 14.11 101.643 13.12C101.148 12.121 100.437 11.338 99.5095 10.771C98.5915 10.195 97.4935 9.907 96.2155 9.907H93.3535ZM108.694 8.044H110.8V18.871C110.8 20.464 111.2 21.616 112.001 22.327C112.802 23.029 113.851 23.38 115.147 23.38C116.434 23.38 117.473 23.029 118.265 22.327C119.066 21.616 119.467 20.464 119.467 18.871V8.044H121.573V18.871C121.573 20.293 121.307 21.4855 120.776 22.4485C120.254 23.4025 119.512 24.1225 118.549 24.6085C117.586 25.0855 116.452 25.324 115.147 25.324C113.842 25.324 112.703 25.0855 111.731 24.6085C110.768 24.1225 110.021 23.4025 109.49 22.4485C108.959 21.4855 108.694 20.293 108.694 18.871V8.044ZM132.597 25.324C131.103 25.324 129.816 24.9505 128.736 24.2035C127.656 23.4475 126.824 22.4035 126.239 21.0715C125.654 19.7305 125.361 18.178 125.361 16.414C125.361 14.533 125.676 12.949 126.306 11.662C126.945 10.375 127.809 9.403 128.898 8.746C129.996 8.08 131.229 7.747 132.597 7.747C134.406 7.747 135.86 8.2015 136.958 9.1105C138.065 10.0105 138.825 11.185 139.239 12.634L136.971 13.093C136.62 12.04 136.058 11.203 135.284 10.582C134.519 9.952 133.623 9.637 132.597 9.637C131.706 9.637 130.883 9.8935 130.127 10.4065C129.38 10.9105 128.777 11.6665 128.318 12.6745C127.859 13.6825 127.629 14.929 127.629 16.414C127.629 17.764 127.809 18.9655 128.169 20.0185C128.538 21.0715 129.087 21.8995 129.816 22.5025C130.554 23.1055 131.481 23.407 132.597 23.407C133.938 23.407 135 23.047 135.783 22.327C136.575 21.607 136.971 20.662 136.971 19.492H139.266C139.266 20.707 138.987 21.751 138.429 22.624C137.871 23.488 137.088 24.154 136.08 24.622C135.081 25.09 133.92 25.324 132.597 25.324ZM140.705 9.853V8.044H153.908V9.853H147.873L148.346 9.367V25H146.24V9.367L146.712 9.853H140.705ZM162.223 25.324C161.089 25.324 160.05 25.1215 159.105 24.7165C158.16 24.3025 157.399 23.695 156.823 22.894C156.247 22.093 155.95 21.103 155.932 19.924H157.984C157.984 20.716 158.178 21.3685 158.565 21.8815C158.952 22.3855 159.465 22.7635 160.104 23.0155C160.743 23.2585 161.44 23.38 162.196 23.38C163.015 23.38 163.726 23.2495 164.329 22.9885C164.932 22.7275 165.396 22.3855 165.72 21.9625C166.053 21.5305 166.219 21.058 166.219 20.545C166.219 19.825 165.999 19.2445 165.558 18.8035C165.117 18.3535 164.464 17.989 163.6 17.71L160.603 16.657C159.199 16.153 158.137 15.577 157.417 14.929C156.697 14.281 156.337 13.372 156.337 12.202C156.337 10.888 156.841 9.817 157.849 8.989C158.866 8.161 160.306 7.747 162.169 7.747C163.897 7.747 165.247 8.1475 166.219 8.9485C167.191 9.7405 167.749 10.807 167.893 12.148H165.814C165.679 11.365 165.31 10.7575 164.707 10.3255C164.113 9.8845 163.267 9.664 162.169 9.664C161.053 9.664 160.185 9.9115 159.564 10.4065C158.943 10.9015 158.632 11.527 158.632 12.283C158.632 12.904 158.826 13.399 159.213 13.768C159.609 14.128 160.225 14.452 161.062 14.74L164.572 15.955C165.787 16.36 166.746 16.927 167.448 17.656C168.159 18.385 168.514 19.33 168.514 20.491C168.514 21.391 168.271 22.2055 167.785 22.9345C167.308 23.6635 166.602 24.244 165.666 24.676C164.73 25.108 163.582 25.324 162.223 25.324Z" fill="#A66F1B"/>
</svg>
