<svg width="40" height="40" viewBox="0 0 40 40" fill="none" xmlns="http://www.w3.org/2000/svg">
<path d="M35.1562 33.0039L25.0117 22.8594C26.5859 20.8242 27.4375 18.3359 27.4375 15.7188C27.4375 12.5859 26.2148 9.64844 24.0039 7.43359C21.793 5.21875 18.8477 4 15.7187 4C12.5898 4 9.64453 5.22266 7.43359 7.43359C5.21875 9.64453 4 12.5859 4 15.7188C4 18.8477 5.22266 21.793 7.43359 24.0039C9.64453 26.2187 12.5859 27.4375 15.7187 27.4375C18.3359 27.4375 20.8203 26.5859 22.8555 25.0156L33 35.1562C33.0297 35.186 33.0651 35.2096 33.1039 35.2257C33.1428 35.2418 33.1845 35.2501 33.2266 35.2501C33.2686 35.2501 33.3103 35.2418 33.3492 35.2257C33.3881 35.2096 33.4234 35.186 33.4531 35.1562L35.1562 33.457C35.186 33.4273 35.2096 33.392 35.2257 33.3531C35.2418 33.3142 35.2501 33.2725 35.2501 33.2305C35.2501 33.1884 35.2418 33.1467 35.2257 33.1078C35.2096 33.069 35.186 33.0337 35.1562 33.0039V33.0039ZM21.9062 21.9063C20.25 23.5586 18.0547 24.4688 15.7187 24.4688C13.3828 24.4688 11.1875 23.5586 9.53125 21.9063C7.87891 20.25 6.96875 18.0547 6.96875 15.7188C6.96875 13.3828 7.87891 11.1836 9.53125 9.53125C11.1875 7.87891 13.3828 6.96875 15.7187 6.96875C18.0547 6.96875 20.2539 7.875 21.9062 9.53125C23.5586 11.1875 24.4687 13.3828 24.4687 15.7188C24.4687 18.0547 23.5586 20.2539 21.9062 21.9063Z" fill="#B7802D"/>
</svg>
