<svg width="29" height="29" viewBox="0 0 29 29" fill="none" xmlns="http://www.w3.org/2000/svg">
<path d="M14.502 2.41895C7.82963 2.41895 2.41992 7.82865 2.41992 14.5011C2.41992 20.5307 6.83759 25.5283 12.6146 26.4382V17.9944H9.54546V14.5011H12.6146V11.8391C12.6146 8.80861 14.4187 7.13749 17.1773 7.13749C18.4992 7.13749 19.884 7.37311 19.884 7.37311V10.3444H18.3566C16.8583 10.3444 16.3895 11.2772 16.3895 12.233V14.4987H19.7378L19.2025 17.9919H16.3895V26.4358C22.1665 25.5307 26.5842 20.5319 26.5842 14.5011C26.5842 7.82865 21.1745 2.41895 14.502 2.41895V2.41895Z" fill="black" fill-opacity="0.59"/>
</svg>
