<svg width="25" height="25" viewBox="0 0 25 25" fill="none" xmlns="http://www.w3.org/2000/svg">
<path fill-rule="evenodd" clip-rule="evenodd" d="M7.77539 1.11025C8.99727 1.054 9.38685 1.0415 12.4993 1.0415C15.6118 1.0415 16.0014 1.05505 17.2223 1.11025C18.4431 1.16546 19.2764 1.36025 20.0056 1.64255C20.7691 1.93109 21.4618 2.38213 22.0348 2.96546C22.6181 3.53734 23.0681 4.229 23.3556 4.99359C23.6389 5.72275 23.8327 6.55609 23.8889 7.77484C23.9452 8.9988 23.9577 9.38838 23.9577 12.4998C23.9577 15.6123 23.9441 16.0019 23.8889 17.2238C23.8337 18.4425 23.6389 19.2759 23.3556 20.005C23.0681 20.7697 22.6173 21.4625 22.0348 22.0353C21.4618 22.6186 20.7691 23.0686 20.0056 23.3561C19.2764 23.6394 18.4431 23.8332 17.2243 23.8894C16.0014 23.9457 15.6118 23.9582 12.4993 23.9582C9.38685 23.9582 8.99727 23.9446 7.77539 23.8894C6.55664 23.8342 5.72331 23.6394 4.99414 23.3561C4.22947 23.0685 3.53666 22.6178 2.96393 22.0353C2.38099 21.463 1.92989 20.7706 1.64206 20.0061C1.35977 19.2769 1.16602 18.4436 1.10977 17.2248C1.05352 16.0009 1.04102 15.6113 1.04102 12.4998C1.04102 9.38734 1.05456 8.99775 1.10977 7.77692C1.16497 6.55609 1.35977 5.72275 1.64206 4.99359C1.93031 4.22909 2.38176 3.53662 2.96497 2.96442C3.53689 2.38161 4.22901 1.93051 4.9931 1.64255C5.72227 1.36025 6.5556 1.1665 7.77435 1.11025H7.77539ZM17.1296 3.17275C15.9212 3.11755 15.5587 3.10609 12.4993 3.10609C9.43997 3.10609 9.07747 3.11755 7.86914 3.17275C6.75143 3.2238 6.14518 3.41025 5.74102 3.56755C5.20664 3.77588 4.82435 4.02275 4.42331 4.4238C4.04315 4.79364 3.75058 5.24388 3.56706 5.7415C3.40977 6.14567 3.22331 6.75192 3.17227 7.86963C3.11706 9.07796 3.1056 9.44046 3.1056 12.4998C3.1056 15.5592 3.11706 15.9217 3.17227 17.13C3.22331 18.2478 3.40977 18.854 3.56706 19.2582C3.75039 19.755 4.0431 20.2061 4.42331 20.5759C4.7931 20.9561 5.24414 21.2488 5.74102 21.4321C6.14518 21.5894 6.75143 21.7759 7.86914 21.8269C9.07747 21.8821 9.43893 21.8936 12.4993 21.8936C15.5598 21.8936 15.9212 21.8821 17.1296 21.8269C18.2473 21.7759 18.8535 21.5894 19.2577 21.4321C19.7921 21.2238 20.1743 20.9769 20.5754 20.5759C20.9556 20.2061 21.2483 19.755 21.4316 19.2582C21.5889 18.854 21.7754 18.2478 21.8264 17.13C21.8816 15.9217 21.8931 15.5592 21.8931 12.4998C21.8931 9.44046 21.8816 9.07796 21.8264 7.86963C21.7754 6.75192 21.5889 6.14567 21.4316 5.7415C21.2233 5.20713 20.9764 4.82484 20.5754 4.4238C20.2055 4.04366 19.7553 3.7511 19.2577 3.56755C18.8535 3.41025 18.2473 3.2238 17.1296 3.17275V3.17275ZM11.0358 16.0321C11.8532 16.3724 12.7633 16.4183 13.6107 16.162C14.4582 15.9058 15.1904 15.3633 15.6823 14.6272C16.1742 13.8911 16.3952 13.007 16.3077 12.126C16.2202 11.245 15.8296 10.4217 15.2025 9.79671C14.8027 9.39721 14.3194 9.09131 13.7872 8.90103C13.255 8.71076 12.6873 8.64084 12.1249 8.69631C11.5624 8.75179 11.0193 8.93127 10.5346 9.22185C10.0498 9.51242 9.63554 9.90686 9.32154 10.3768C9.00754 10.8467 8.80163 11.3803 8.71864 11.9394C8.63564 12.4984 8.67763 13.0689 8.84158 13.6097C9.00552 14.1506 9.28735 14.6484 9.66677 15.0673C10.0462 15.4861 10.5137 15.8157 11.0358 16.0321ZM8.33477 8.33525C8.88167 7.78835 9.53093 7.35453 10.2455 7.05855C10.9601 6.76257 11.7259 6.61023 12.4993 6.61023C13.2728 6.61023 14.0386 6.76257 14.7532 7.05855C15.4678 7.35453 16.117 7.78835 16.6639 8.33525C17.2108 8.88215 17.6447 9.53142 17.9406 10.246C18.2366 10.9605 18.389 11.7264 18.389 12.4998C18.389 13.2733 18.2366 14.0391 17.9406 14.7537C17.6447 15.4683 17.2108 16.1175 16.6639 16.6644C15.5594 17.7689 14.0614 18.3894 12.4993 18.3894C10.9373 18.3894 9.43928 17.7689 8.33477 16.6644C7.23025 15.5599 6.60974 14.0619 6.60974 12.4998C6.60974 10.9378 7.23025 9.43977 8.33477 8.33525V8.33525ZM19.6952 7.48734C19.8307 7.35949 19.9392 7.20575 20.0142 7.03523C20.0893 6.8647 20.1294 6.68085 20.1321 6.49456C20.1348 6.30827 20.1001 6.12332 20.0301 5.95068C19.96 5.77804 19.856 5.6212 19.7243 5.48946C19.5926 5.35772 19.4357 5.25375 19.2631 5.18371C19.0904 5.11367 18.9055 5.07898 18.7192 5.08169C18.5329 5.08441 18.3491 5.12448 18.1785 5.19952C18.008 5.27457 17.8543 5.38306 17.7264 5.51859C17.4778 5.78216 17.3417 6.13226 17.347 6.49456C17.3522 6.85686 17.4985 7.20284 17.7547 7.45905C18.0109 7.71526 18.3569 7.86153 18.7192 7.86682C19.0815 7.8721 19.4316 7.73597 19.6952 7.48734V7.48734Z" fill="black" fill-opacity="0.59"/>
</svg>
