<svg width="179" height="136" viewBox="0 0 179 136" fill="none" xmlns="http://www.w3.org/2000/svg">
<path d="M95.1248 35.542L93.3177 37.7988C111.488 39.7397 125.668 54.7222 125.668 72.8682C125.668 92.3286 109.362 108.157 89.317 108.157C69.2716 108.157 52.9657 92.3235 52.9657 72.8682C52.9657 54.6559 67.2503 39.6276 85.5095 37.7733L83.5248 35.5369C64.8217 38.2623 50.4326 53.9631 50.4326 72.8682C50.4326 93.6837 67.8771 110.617 89.3222 110.617C110.767 110.617 128.212 93.6837 128.212 72.8682C128.212 53.9682 113.828 38.2674 95.1301 35.5369L95.1248 35.542Z" fill="url(#paint0_radial_137_126)"/>
<path d="M70.7975 22.6325C69.0582 19.5606 70.2856 16.9014 72.1659 15.7297C73.6387 14.8127 75.9838 14.5529 77.7439 16.8505C78.1618 17.3955 78.9556 17.5076 79.5197 17.1052C80.0838 16.6976 80.1987 15.9284 79.7808 15.3833C77.1694 11.9752 73.294 12.1025 70.7975 13.6614C68.9068 14.8433 67.5332 16.9625 67.4444 19.4638C65.5589 17.7572 63.0415 17.1969 60.8479 17.6604C57.9492 18.2718 55.1184 20.8444 55.7503 25.0472C55.8496 25.7197 56.5024 26.1832 57.1866 26.0865C57.8813 25.9897 58.3618 25.3631 58.2573 24.6906C57.829 21.8582 59.6727 20.4267 61.3858 20.0701C63.5638 19.6116 66.3737 20.6457 67.3817 24.0131C68.5203 27.8236 66.7706 31.8023 62.6915 34.6602C61.4903 35.5008 60.0905 36.2191 58.602 36.7336C58.8997 33.6872 58.2573 30.7528 56.6278 28.4553C49.6552 18.5978 40.1965 20.7629 39.7996 20.8597C39.3452 20.9718 38.9901 21.3131 38.8752 21.7563C38.7759 22.1435 36.5457 31.3234 46.699 38.0938C49.0702 39.673 52.0891 40.2945 55.228 40.0092C54.7005 41.4509 53.9641 42.8111 53.0919 43.9777C50.1462 47.9309 46.0462 49.6375 42.1238 48.5269C38.6558 47.5488 37.5851 44.8234 38.0604 42.7092C38.4312 41.0485 39.8936 39.2553 42.8237 39.673C43.5079 39.7698 44.1607 39.3062 44.26 38.6338C44.3644 37.9613 43.8839 37.3347 43.1893 37.2379C38.8647 36.6215 36.2115 39.3724 35.5795 42.1845C35.1042 44.319 35.6787 46.7592 37.4336 48.5881C34.8588 48.6747 32.6704 50.0043 31.4534 51.8433C29.85 54.2682 29.7194 58.0278 33.2292 60.5648C33.7933 60.9723 34.5872 60.8552 35.005 60.3101C35.4228 59.765 35.3079 58.9958 34.7438 58.5882C32.3779 56.8765 32.6442 54.6044 33.5896 53.1729C34.7961 51.3492 37.5381 50.1571 40.7032 51.8484C44.2808 53.7588 45.9417 57.7782 45.1426 62.5974C44.9076 64.0188 44.4375 65.4859 43.7586 66.8665L45.409 69.1793C46.4954 67.3453 47.2736 65.2363 47.6496 62.9846C48.4435 58.1959 47.1796 54.0186 44.2286 51.3135C44.3331 51.3135 44.4323 51.3237 44.5368 51.3237C48.4853 51.3237 52.298 49.2452 55.1445 45.4143C56.5233 43.5651 57.5052 41.5375 58.0745 39.4947C60.1793 38.9394 62.2633 37.9868 64.1696 36.6521C68.2174 33.8145 70.3692 29.9887 70.2543 26.0508C72.0719 27.9153 74.5318 29.0921 77.3888 29.464L80.3763 27.0951C76.083 27.36 72.5628 25.7451 70.7923 22.6274L70.7975 22.6325ZM55.9279 37.4111C53.1807 37.8645 50.3707 37.5487 48.1353 36.0611C40.9748 31.2928 40.9539 25.2561 41.2046 23.1267C43.3877 22.8974 49.65 22.9382 54.5386 29.8461C56.0741 32.0162 56.398 34.7417 55.9279 37.4111Z" fill="url(#paint1_radial_137_126)" stroke="url(#paint2_linear_137_126)" stroke-width="0.25" stroke-miterlimit="10"/>
<path d="M145.845 51.8433C144.628 50.0042 142.445 48.6746 139.865 48.588C141.625 46.7591 142.199 44.3139 141.724 42.1844C141.092 39.3673 138.449 36.6214 134.114 37.2378C133.42 37.3346 132.944 37.9612 133.044 38.6337C133.143 39.3061 133.791 39.7697 134.48 39.6729C137.4 39.2603 138.867 41.0484 139.243 42.7092C139.719 44.8284 138.648 47.5538 135.18 48.5269C131.257 49.6323 127.152 47.9308 124.212 43.9776C123.345 42.811 122.608 41.4508 122.081 40.0092C125.215 40.2944 128.239 39.6729 130.61 38.0937C140.763 31.3284 138.533 22.1434 138.434 21.7562C138.319 21.3181 137.964 20.9717 137.509 20.8596C137.112 20.7628 127.654 18.5977 120.681 28.4552C119.057 30.7528 118.414 33.6871 118.707 36.7335C117.218 36.219 115.819 35.5058 114.617 34.6601C110.544 31.8022 108.789 27.8184 109.927 24.013C110.935 20.6456 113.74 19.6064 115.923 20.07C117.636 20.4317 119.48 21.8581 119.052 24.6905C118.947 25.363 119.428 25.9896 120.122 26.0864C120.817 26.1832 121.459 25.7196 121.564 25.0471C122.201 20.8443 119.365 18.2717 116.466 17.6604C114.267 17.1968 111.755 17.7572 109.87 19.4638C109.781 16.9624 108.407 14.8381 106.517 13.6613C104.02 12.1025 100.145 11.9802 97.5333 15.3832C97.1155 15.9283 97.2304 16.6975 97.7944 17.1051C98.3585 17.5126 99.1524 17.3955 99.5702 16.8504C101.33 14.5528 103.675 14.8126 105.148 15.7296C107.029 16.9013 108.256 19.5606 106.517 22.6324C104.95 25.3936 102.015 26.9728 98.3898 27.1205L100.928 29.2958C103.357 28.8016 105.456 27.7013 107.06 26.0609C106.95 29.9937 109.097 33.8145 113.144 36.652C115.051 37.9918 117.135 38.9444 119.24 39.4946C119.809 41.5374 120.791 43.5599 122.17 45.4091C125.021 49.2401 128.834 51.3186 132.783 51.3186C132.882 51.3186 132.986 51.3084 133.085 51.3084C130.135 54.0134 128.871 58.1908 129.664 62.9795C130.041 65.2362 130.819 67.3402 131.905 69.1741L133.55 66.8613C132.871 65.4757 132.401 64.0085 132.166 62.5872C131.367 57.768 133.028 53.7485 136.606 51.8382C139.771 50.1469 142.513 51.3389 143.719 53.1627C144.665 54.5942 144.931 56.8663 142.565 58.578C142.001 58.9855 141.886 59.7548 142.304 60.2998C142.722 60.8449 143.516 60.957 144.08 60.5546C147.589 58.0227 147.459 54.258 145.855 51.8331L145.845 51.8433ZM122.77 29.846C127.685 22.8973 133.905 22.8769 136.094 23.1164C136.329 25.2356 136.287 31.3182 129.168 36.056C126.933 37.5435 124.123 37.8594 121.376 37.406C120.911 34.7365 121.235 32.0111 122.765 29.8409L122.77 29.846Z" fill="url(#paint3_radial_137_126)" stroke="url(#paint4_linear_137_126)" stroke-width="0.25" stroke-miterlimit="10"/>
<path d="M95.7533 18.0991C98.0044 6.3414 89.7366 1.37953 89.3866 1.17575C88.9845 0.941415 88.4831 0.941415 88.0809 1.17575C87.7257 1.37953 79.4631 6.3414 81.7142 18.0991C82.1477 20.3559 83.3751 22.4548 85.1456 24.2174H92.3219C94.0924 22.4548 95.3198 20.3559 95.7533 18.0991ZM84.2107 17.6508C82.623 9.36236 87.005 5.07801 88.7338 3.74839C90.4416 5.08311 94.8393 9.4133 93.2672 17.6508C92.7711 20.2388 91.0162 22.3886 88.739 23.9576C86.467 22.3886 84.7069 20.2388 84.216 17.6508H84.2107Z" fill="url(#paint5_radial_137_126)" stroke="url(#paint6_linear_137_126)" stroke-width="0.25" stroke-miterlimit="10"/>
<path d="M42.2808 111.305H44.0044V123.796C44.0044 125.717 43.8634 127.051 43.5866 127.805C43.3097 128.554 42.8449 129.155 42.1973 129.603C41.5496 130.052 40.7662 130.276 39.8417 130.276C39.1471 130.276 38.4629 130.133 37.7839 129.843C37.1102 129.553 36.3581 129.043 35.5381 128.315L36.4521 126.842C37.3504 127.52 38.0973 127.999 38.6927 128.279C39.0844 128.462 39.4657 128.554 39.8417 128.554C40.3327 128.554 40.7819 128.396 41.184 128.075C41.5862 127.754 41.8682 127.331 42.0301 126.807C42.192 126.277 42.2704 125.253 42.2704 123.735V111.305H42.2808Z" fill="black" stroke="black" stroke-width="0.75" stroke-miterlimit="10"/>
<path d="M58.8438 125.268L60.2279 126.048C59.7735 127.006 59.2512 127.775 58.6558 128.361C58.0604 128.947 57.3919 129.395 56.6502 129.701C55.9086 130.006 55.0677 130.159 54.1276 130.159C52.0488 130.159 50.4245 129.425 49.2494 127.963C48.0742 126.501 47.4893 124.846 47.4893 123.002C47.4893 121.264 47.9854 119.716 48.9778 118.361C50.2365 116.634 51.9183 115.768 54.0335 115.768C56.1488 115.768 57.9403 116.654 59.2408 118.422C60.1652 119.67 60.63 121.234 60.6457 123.103H49.1762C49.2076 124.693 49.6829 125.997 50.5969 127.011C51.5109 128.03 52.6442 128.534 53.9865 128.534C54.6342 128.534 55.2661 128.412 55.8824 128.172C56.4987 127.933 57.0158 127.607 57.4493 127.209C57.8828 126.812 58.3424 126.16 58.8438 125.268ZM58.8438 121.58C58.6245 120.643 58.3059 119.889 57.888 119.328C57.4702 118.768 56.9166 118.315 56.2272 117.968C55.5377 117.627 54.817 117.454 54.0597 117.454C52.8062 117.454 51.7355 117.887 50.8319 118.748C50.1738 119.374 49.6776 120.322 49.3434 121.58H58.8438Z" fill="black" stroke="black" stroke-width="0.75" stroke-miterlimit="10"/>
<path d="M62.1836 116.124H63.8706L67.7773 126.063L71.8459 116.124H72.1436L76.2384 126.063L80.2182 116.124H81.9261L76.3898 129.812H76.0869L72.0131 120.011L67.9392 129.812H67.6363L62.194 116.124H62.1836Z" fill="black" stroke="black" stroke-width="0.75" stroke-miterlimit="10"/>
<path d="M94.7647 125.268L96.1488 126.048C95.6944 127.006 95.1721 127.775 94.5767 128.361C93.9813 128.947 93.3128 129.395 92.5711 129.701C91.8295 130.006 90.9886 130.159 90.0485 130.159C87.9697 130.159 86.3454 129.425 85.1703 127.963C83.9951 126.501 83.4102 124.846 83.4102 123.002C83.4102 121.264 83.9063 119.716 84.8987 118.361C86.1574 116.634 87.8392 115.768 89.9544 115.768C92.0697 115.768 93.8612 116.654 95.1617 118.422C96.0861 119.67 96.5509 121.234 96.5666 123.103H85.0971C85.1285 124.693 85.6038 125.997 86.5178 127.011C87.4318 128.024 88.5599 128.534 89.9074 128.534C90.5551 128.534 91.187 128.412 91.8033 128.172C92.4144 127.928 92.9367 127.607 93.3702 127.209C93.7985 126.807 94.2633 126.16 94.7647 125.268ZM94.7647 121.58C94.5454 120.643 94.2268 119.889 93.8089 119.328C93.3911 118.768 92.8375 118.315 92.148 117.968C91.4586 117.627 90.7379 117.454 89.9806 117.454C88.7271 117.454 87.6511 117.887 86.7528 118.748C86.0947 119.374 85.5985 120.322 85.2643 121.58H94.7647Z" fill="black" stroke="black" stroke-width="0.75" stroke-miterlimit="10"/>
<path d="M99.5635 110.836H101.203V129.807H99.5635V110.836Z" fill="black" stroke="black" stroke-width="0.75" stroke-miterlimit="10"/>
<path d="M104.566 110.836H106.206V129.807H104.566V110.836Z" fill="black" stroke="black" stroke-width="0.75" stroke-miterlimit="10"/>
<path d="M120.537 125.268L121.921 126.048C121.467 127.006 120.945 127.775 120.349 128.361C119.754 128.947 119.085 129.395 118.344 129.701C117.602 130.006 116.761 130.159 115.821 130.159C113.742 130.159 112.118 129.425 110.943 127.963C109.768 126.501 109.183 124.846 109.183 123.002C109.183 121.264 109.679 119.716 110.671 118.361C111.93 116.634 113.612 115.768 115.727 115.768C117.842 115.768 119.634 116.654 120.934 118.422C121.859 119.67 122.323 121.234 122.339 123.103H110.87C110.901 124.693 111.376 125.997 112.29 127.011C113.204 128.03 114.332 128.534 115.68 128.534C116.328 128.534 116.959 128.412 117.576 128.172C118.187 127.928 118.709 127.607 119.143 127.209C119.571 126.807 120.036 126.16 120.537 125.268ZM120.537 121.58C120.318 120.643 119.999 119.889 119.581 119.328C119.164 118.768 118.61 118.315 117.921 117.968C117.231 117.627 116.51 117.454 115.753 117.454C114.5 117.454 113.429 117.887 112.525 118.748C111.867 119.374 111.371 120.322 111.037 121.58H120.537Z" fill="black" stroke="black" stroke-width="0.75" stroke-miterlimit="10"/>
<path d="M124.969 116.124H126.645V118.126C127.147 117.336 127.674 116.751 128.228 116.358C128.781 115.966 129.361 115.772 129.962 115.772C130.416 115.772 130.897 115.925 131.414 116.236L130.557 117.718C130.213 117.561 129.925 117.479 129.69 117.479C129.142 117.479 128.614 117.718 128.108 118.202C127.601 118.686 127.215 119.435 126.948 120.449C126.745 121.228 126.645 122.808 126.645 125.182V129.812H124.969V116.124Z" fill="black" stroke="black" stroke-width="0.75" stroke-miterlimit="10"/>
<path d="M131.628 116.124H133.362L137.744 126.664L141.996 116.124H143.74L136.136 134.82H134.402L136.856 128.778L131.623 116.129L131.628 116.124Z" fill="black" stroke="black" stroke-width="0.75" stroke-miterlimit="10"/>
<path d="M33.6222 107.937H33.079L24.1792 81.5334L15.4413 107.937H14.9504L4.45756 77.0199C4.0345 75.7667 3.58011 74.8039 3.09961 74.1263C2.6191 73.4539 1.91923 73.1176 1 73.1176V72.7661H8.62021V73.1176C7.87856 73.1176 7.50773 73.408 7.50773 73.9888C7.50773 74.3352 7.62263 74.8599 7.85767 75.5629L16.4023 100.744L23.4219 79.4702L22.7429 77.4478C22.1423 75.675 21.573 74.5135 21.0246 73.9582C20.4762 73.4029 19.8599 73.1227 19.1757 73.1227V72.7712H26.7071V73.1227C25.9811 73.1227 25.6155 73.4589 25.6155 74.1314C25.6155 74.3352 25.767 74.8752 26.0751 75.7514L34.5989 100.841L43.1122 75.3082C43.1279 75.247 43.1436 75.2063 43.154 75.191L43.4831 73.9888C43.4831 73.408 43.1018 73.1176 42.3392 73.1176V72.7661H47.0451V73.1176C45.7602 73.1329 44.747 74.2537 44.0001 76.4799L33.6274 107.937H33.6222Z" fill="black" stroke="black" stroke-width="0.75" stroke-miterlimit="10"/>
<path d="M165.064 107.937H164.52L155.621 81.5334L146.883 107.937H146.392L135.899 77.0199C135.476 75.7667 135.022 74.8039 134.541 74.1263C134.061 73.4539 133.361 73.1176 132.441 73.1176V72.7661H140.062V73.1176C139.32 73.1176 138.949 73.408 138.949 73.9888C138.949 74.3352 139.064 74.8599 139.299 75.5629L147.844 100.744L154.863 79.4702L154.184 77.4478C153.584 75.675 153.014 74.5135 152.466 73.9582C151.918 73.4029 151.301 73.1227 150.617 73.1227V72.7712H158.148V73.1227C157.423 73.1227 157.057 73.4589 157.057 74.1314C157.057 74.3352 157.208 74.8752 157.517 75.7514L166.04 100.841L174.554 75.3082C174.569 75.247 174.585 75.2063 174.595 75.191L174.924 73.9888C174.924 73.408 174.543 73.1176 173.781 73.1176V72.7661H178.486V73.1176C177.202 73.1329 176.188 74.2537 175.442 76.4799L165.069 107.937H165.064Z" fill="black" stroke="black" stroke-width="0.75" stroke-miterlimit="10"/>
<path d="M123.37 71.9876C123.37 86.2823 114.052 98.4628 101 103.094C112.376 98.5749 120.388 87.7036 120.388 75.0187C120.388 58.2736 106.432 44.7022 89.2121 44.7022C71.9923 44.7022 58.0367 58.2787 58.0367 75.0187C58.0367 86.9904 65.1712 97.3421 75.5334 102.268C63.5939 97.123 55.2686 85.5028 55.2686 71.9876C55.2686 53.704 70.5142 38.8845 89.3166 38.8845C108.119 38.8845 123.365 53.704 123.365 71.9876H123.37Z" fill="#010101" stroke="#010101" stroke-width="0.2" stroke-miterlimit="10"/>
<path d="M98.4694 29.3268L94.6567 26.2192H83.9759L79.8916 29.5458L88.8175 39.3575L89.2092 39.7906L89.6062 39.3626L98.7358 29.5509L98.4642 29.3268H98.4694ZM94.6619 27.2432L97.0906 29.2198H93.8419L94.6672 27.2432H94.6619ZM93.8576 26.9426L92.9749 29.0568L90.3844 26.9426H93.8576ZM91.9304 29.2249H86.697L89.3137 27.0904L91.9304 29.2249ZM88.2482 26.9426L85.6263 29.0823L84.7698 26.9426H88.2482ZM83.9602 27.2534L84.7541 29.2249H81.542L83.9602 27.2534ZM81.3488 29.9432H85.0361L87.9453 37.1975L81.3488 29.9432ZM89.2249 38.0534L85.971 29.9432H92.6041L89.2249 38.0534ZM90.5097 37.2026L93.5338 29.9432H97.2629L90.5097 37.2026Z" fill="#010101" stroke="#231F20" stroke-width="0.5" stroke-miterlimit="10"/>
<path d="M89.4003 85.3901C88.9981 85.1558 88.4967 85.1558 88.0946 85.3901C87.7394 85.5939 79.4768 90.5557 81.7279 102.313C82.1666 104.606 83.4253 106.735 85.2377 108.513L88.7474 108.172C86.4755 106.603 84.7154 104.453 84.2244 101.865C82.6367 93.5766 87.0187 89.2923 88.7422 87.9627C90.4501 89.2974 94.8478 93.6276 93.2757 101.865C92.7795 104.453 91.0246 106.603 88.7474 108.172L92.2102 108.564C94.0539 106.776 95.3231 104.631 95.767 102.318C98.0181 90.5608 89.7502 85.599 89.4003 85.3952V85.3901Z" fill="url(#paint7_radial_137_126)"/>
<path d="M88.6776 81.6101C88.547 79.7762 88.4582 77.9473 88.3799 76.1133C88.3433 75.1964 88.2336 74.2794 88.2963 73.3675C88.359 72.4505 88.453 71.5387 88.6985 70.6217C88.7037 70.5962 88.7298 70.586 88.7559 70.5911C88.7716 70.5911 88.782 70.6064 88.7873 70.6217C89.0275 71.5387 89.1215 72.4556 89.179 73.3675C89.2417 74.2845 89.1267 75.2015 89.085 76.1133C88.9962 77.9422 88.9022 79.7762 88.7611 81.605C88.7611 81.6305 88.7403 81.6458 88.7141 81.6458C88.6932 81.6458 88.6724 81.6254 88.6724 81.605L88.6776 81.6101Z" fill="url(#paint8_linear_137_126)"/>
<path d="M84.3715 83.8111C82.742 82.675 81.1386 81.5085 79.5404 80.3368C78.7413 79.7458 77.9004 79.216 77.1692 78.5486C76.4327 77.8864 75.7224 77.1986 75.1009 76.3937C75.0852 76.3733 75.0905 76.3479 75.1114 76.3326C75.127 76.3224 75.1427 76.3224 75.1584 76.3326C76.0828 76.7656 76.9185 77.3158 77.728 77.8864C78.5428 78.4569 79.2426 79.1599 79.9895 79.8069C81.4833 81.106 82.9718 82.4101 84.429 83.7499C84.4446 83.7652 84.4499 83.7958 84.429 83.8111C84.4133 83.8263 84.3872 83.8314 84.3715 83.8162V83.8111Z" fill="url(#paint9_linear_137_126)"/>
<path d="M92.5212 83.4034C94.0411 82.1196 95.5871 80.8664 97.1383 79.6234C97.9165 79.0019 98.6477 78.3243 99.4886 77.7843C100.324 77.2392 101.181 76.7247 102.131 76.3223C102.152 76.3121 102.184 76.3223 102.189 76.3477C102.194 76.363 102.189 76.3834 102.184 76.3936C101.531 77.173 100.784 77.8353 100.021 78.4721C99.2588 79.1139 98.3918 79.6132 97.5665 80.1736C95.9161 81.2892 94.2604 82.3998 92.5734 83.4747C92.5526 83.49 92.5264 83.4798 92.5108 83.4645C92.5003 83.4441 92.5003 83.4237 92.5212 83.4085V83.4034Z" fill="url(#paint10_linear_137_126)"/>
<defs>
<radialGradient id="paint0_radial_137_126" cx="0" cy="0" r="1" gradientUnits="userSpaceOnUse" gradientTransform="translate(89.3118 73.0821) scale(38.6911 37.7389)">
<stop stop-color="#FED687"/>
<stop offset="1" stop-color="#B57E2D"/>
</radialGradient>
<radialGradient id="paint1_radial_137_126" cx="0" cy="0" r="1" gradientUnits="userSpaceOnUse" gradientTransform="translate(55.3795 40.8956) scale(27.0755 26.409)">
<stop stop-color="#FED687"/>
<stop offset="1" stop-color="#B57E2D"/>
</radialGradient>
<linearGradient id="paint2_linear_137_126" x1="30.3148" y1="40.9211" x2="80.5799" y2="40.9211" gradientUnits="userSpaceOnUse">
<stop stop-color="#F1C779"/>
<stop offset="1" stop-color="#D29C2A"/>
</linearGradient>
<radialGradient id="paint3_radial_137_126" cx="0" cy="0" r="1" gradientUnits="userSpaceOnUse" gradientTransform="translate(122.102 40.8956) scale(26.9919 26.3275)">
<stop stop-color="#FED687"/>
<stop offset="1" stop-color="#B57E2D"/>
</radialGradient>
<linearGradient id="paint4_linear_137_126" x1="97.2147" y1="40.921" x2="146.989" y2="40.921" gradientUnits="userSpaceOnUse">
<stop stop-color="#F1C779"/>
<stop offset="1" stop-color="#D29C2A"/>
</linearGradient>
<radialGradient id="paint5_radial_137_126" cx="0" cy="0" r="1" gradientUnits="userSpaceOnUse" gradientTransform="translate(88.7338 12.6125) scale(9.91304 9.66905)">
<stop stop-color="#FED687"/>
<stop offset="1" stop-color="#B57E2D"/>
</radialGradient>
<linearGradient id="paint6_linear_137_126" x1="81.2598" y1="12.6125" x2="96.2077" y2="12.6125" gradientUnits="userSpaceOnUse">
<stop stop-color="#F1C779"/>
<stop offset="1" stop-color="#D29C2A"/>
</linearGradient>
<radialGradient id="paint7_radial_137_126" cx="0" cy="0" r="1" gradientUnits="userSpaceOnUse" gradientTransform="translate(88.4541 95.8554) scale(9.90981 9.66584)">
<stop stop-color="#FED687"/>
<stop offset="1" stop-color="#B57E2D"/>
</radialGradient>
<linearGradient id="paint8_linear_137_126" x1="85.6117" y1="73.0568" x2="91.7021" y2="79.3218" gradientUnits="userSpaceOnUse">
<stop stop-color="#F1C779"/>
<stop offset="1" stop-color="#D29C2A"/>
</linearGradient>
<linearGradient id="paint9_linear_137_126" x1="74.0354" y1="78.3143" x2="85.4421" y2="81.9868" gradientUnits="userSpaceOnUse">
<stop stop-color="#F1C779"/>
<stop offset="1" stop-color="#D29C2A"/>
</linearGradient>
<linearGradient id="paint10_linear_137_126" x1="96.6473" y1="77.3615" x2="97.9884" y2="82.4523" gradientUnits="userSpaceOnUse">
<stop stop-color="#F1C779"/>
<stop offset="1" stop-color="#D29C2A"/>
</linearGradient>
</defs>
</svg>
