<svg width="32" height="34" viewBox="0 0 32 34" fill="none" xmlns="http://www.w3.org/2000/svg">
<g clip-path="url(#clip0_246_215)">
<path d="M31.3342 9.21828C31.153 8.53152 30.8 7.90977 30.3128 7.41911C29.8119 6.91336 29.1979 6.55159 28.5288 6.36794C26.0248 5.66669 15.9928 5.66669 15.9928 5.66669C11.8106 5.61614 7.6294 5.8385 3.47282 6.33253C2.80374 6.52974 2.19091 6.8996 1.68882 7.40919C1.19549 7.91353 0.838156 8.53544 0.65149 9.21686C0.20308 11.7835 -0.0147877 14.3896 0.000822911 17C-0.0151771 19.6081 0.202156 22.2134 0.65149 24.7832C0.834156 25.4618 1.19016 26.0809 1.68482 26.5809C2.17949 27.081 2.79549 27.4423 3.47282 27.6335C6.01016 28.3334 15.9928 28.3334 15.9928 28.3334C20.1804 28.384 24.3669 28.1616 28.5288 27.6675C29.1979 27.4839 29.8119 27.1221 30.3128 26.6164C30.7998 26.1258 31.1524 25.504 31.3328 24.8172C31.7929 22.2515 32.0167 19.6444 32.0008 17.0326C32.0354 14.4098 31.812 11.7903 31.3342 9.21686V9.21828ZM12.8035 21.8507V12.1508L21.1502 17.0014L12.8035 21.8507Z" fill="black" fill-opacity="0.59"/>
</g>
<defs>
<clipPath id="clip0_246_215">
<rect width="32" height="34" fill="white"/>
</clipPath>
</defs>
</svg>
